<?xml version="1.0" encoding="UTF-8"?>
<!DOCTYPE svg PUBLIC "-//W3C//DTD SVG 1.1//EN" "http://www.w3.org/Graphics/SVG/1.1/DTD/svg11.dtd">
<svg xmlns="http://www.w3.org/2000/svg" version="1.1" width="347px" height="331px" style="shape-rendering:geometricPrecision; text-rendering:geometricPrecision; image-rendering:optimizeQuality; fill-rule:evenodd; clip-rule:evenodd" xmlns:xlink="http://www.w3.org/1999/xlink">
<g><path style="opacity:1" fill="#fefefe" d="M -0.5,-0.5 C 115.167,-0.5 230.833,-0.5 346.5,-0.5C 346.5,0.833333 346.5,2.16667 346.5,3.5C 335.833,3.5 325.167,3.5 314.5,3.5C 314.715,5.17876 314.048,6.17876 312.5,6.5C 309.657,5.22887 306.657,4.39554 303.5,4C 214.167,3.33333 124.833,3.33333 35.5,4C 31.9513,4.77362 28.618,6.10696 25.5,8C 22.9638,10.705 20.2971,13.205 17.5,15.5C 16.1667,15.5 14.8333,15.5 13.5,15.5C 13.5,11.5 13.5,7.5 13.5,3.5C 8.83333,3.5 4.16667,3.5 -0.5,3.5C -0.5,2.16667 -0.5,0.833333 -0.5,-0.5 Z"/></g>
<g><path style="opacity:1" fill="#f0f2f3" d="M -0.5,3.5 C 4.16667,3.5 8.83333,3.5 13.5,3.5C 13.5,7.5 13.5,11.5 13.5,15.5C 14.8333,15.5 16.1667,15.5 17.5,15.5C 16.0618,18.7157 14.8952,22.049 14,25.5C 13.3333,114.5 13.3333,203.5 14,292.5C 14.758,296.685 16.0913,300.685 18,304.5C 21.0623,307.732 24.229,310.732 27.5,313.5C 25.9519,313.821 25.2852,314.821 25.5,316.5C 16.8333,316.5 8.16667,316.5 -0.5,316.5C -0.5,212.167 -0.5,107.833 -0.5,3.5 Z"/></g>
<g><path style="opacity:1" fill="#1a1a1a" d="M 312.5,6.5 C 319.681,10.5236 324.514,16.5236 327,24.5C 327.667,113.833 327.667,203.167 327,292.5C 326.314,296.861 324.814,300.861 322.5,304.5C 317.771,310.87 311.437,314.703 303.5,316C 214.167,316.667 124.833,316.667 35.5,316C 32.7206,315.439 30.054,314.606 27.5,313.5C 24.229,310.732 21.0623,307.732 18,304.5C 16.0913,300.685 14.758,296.685 14,292.5C 13.3333,203.5 13.3333,114.5 14,25.5C 14.8952,22.049 16.0618,18.7157 17.5,15.5C 20.2971,13.205 22.9638,10.705 25.5,8C 28.618,6.10696 31.9513,4.77362 35.5,4C 124.833,3.33333 214.167,3.33333 303.5,4C 306.657,4.39554 309.657,5.22887 312.5,6.5 Z"/></g>
<g><path style="opacity:1" fill="#f0f2f3" d="M 346.5,3.5 C 346.5,107.833 346.5,212.167 346.5,316.5C 340.167,316.5 333.833,316.5 327.5,316.5C 327.5,312.5 327.5,308.5 327.5,304.5C 325.833,304.5 324.167,304.5 322.5,304.5C 324.814,300.861 326.314,296.861 327,292.5C 327.667,203.167 327.667,113.833 327,24.5C 324.514,16.5236 319.681,10.5236 312.5,6.5C 314.048,6.17876 314.715,5.17876 314.5,3.5C 325.167,3.5 335.833,3.5 346.5,3.5 Z"/></g>
<g><path style="opacity:1" fill="#1afdf2" d="M 100.5,62.5 C 109.5,62.5 118.5,62.5 127.5,62.5C 109.824,79.0068 91.6569,95.0068 73,110.5C 72.5004,103.842 72.3337,97.175 72.5,90.5C 73.9138,79.8544 79.2472,71.6878 88.5,66C 92.1536,63.7274 96.1536,62.5608 100.5,62.5 Z"/></g>
<g><path style="opacity:1" fill="#2cf8e6" d="M 127.5,62.5 C 147.167,62.5 166.833,62.5 186.5,62.5C 177.141,70.862 167.808,79.1953 158.5,87.5C 139.992,87.1698 121.659,87.5032 103.5,88.5C 102.5,88.8333 101.833,89.5 101.5,90.5C 100.883,90.6107 100.383,90.944 100,91.5C 99.5,135.165 99.3333,178.832 99.5,222.5C 98.5062,213.014 98.1729,203.348 98.5,193.5C 98.5,175.833 98.5,158.167 98.5,140.5C 97.448,140.351 96.448,140.517 95.5,141C 87.9747,147.529 80.4747,154.029 73,160.5C 72.5001,177.83 72.3334,195.163 72.5,212.5C 72.5,216.833 72.5,221.167 72.5,225.5C 71.1667,180.5 71.1667,135.5 72.5,90.5C 72.3337,97.175 72.5004,103.842 73,110.5C 91.6569,95.0068 109.824,79.0068 127.5,62.5 Z"/></g>
<g><path style="opacity:1" fill="#41fee3" d="M 186.5,62.5 C 197.167,62.5 207.833,62.5 218.5,62.5C 215.402,69.7011 212.569,77.0345 210,84.5C 209.167,85.3333 208.333,86.1667 207.5,87C 191.17,87.4999 174.837,87.6666 158.5,87.5C 167.808,79.1953 177.141,70.862 186.5,62.5 Z"/></g>
<g><path style="opacity:1" fill="#b7fcb1" d="M 239.5,62.5 C 253.558,64.3798 263.058,72.0465 268,85.5C 269.132,106.465 269.632,127.465 269.5,148.5C 269.333,167.5 269.167,186.5 269,205.5C 264.243,220.247 254.409,225.413 239.5,221C 236.37,218.872 233.537,216.372 231,213.5C 219.667,198.671 208.167,184.004 196.5,169.5C 196.44,168.957 196.107,168.624 195.5,168.5C 194.5,189.489 194.167,210.489 194.5,231.5C 191.5,243.167 184.167,250.5 172.5,253.5C 171.167,253.5 169.833,253.5 168.5,253.5C 168.5,216.833 168.5,180.167 168.5,143.5C 175.03,128.488 185.697,124.655 200.5,132C 214.426,148.085 227.759,164.585 240.5,181.5C 240.56,182.043 240.893,182.376 241.5,182.5C 242.83,144.002 242.83,105.669 241.5,67.5C 241.737,66.209 241.404,65.209 240.5,64.5C 240.167,63.8333 239.833,63.1667 239.5,62.5 Z"/></g>
<g><path style="opacity:1" fill="#44edd2" d="M 218.5,62.5 C 221.518,62.3354 224.518,62.502 227.5,63C 223.207,70.7555 219.874,78.9222 217.5,87.5C 215.585,87.2155 213.919,87.5489 212.5,88.5C 176.167,88.5 139.833,88.5 103.5,88.5C 121.659,87.5032 139.992,87.1698 158.5,87.5C 174.837,87.6666 191.17,87.4999 207.5,87C 208.333,86.1667 209.167,85.3333 210,84.5C 212.569,77.0345 215.402,69.7011 218.5,62.5 Z"/></g>
<g><path style="opacity:1" fill="#43d9c0" d="M 100.5,62.5 C 146.833,61.1667 193.167,61.1667 239.5,62.5C 239.833,63.1667 240.167,63.8333 240.5,64.5C 239.5,64.5 238.5,64.5 237.5,64.5C 235.411,72.0182 232.744,79.3515 229.5,86.5C 227.369,87.1687 225.369,87.8354 223.5,88.5C 219.833,88.5 216.167,88.5 212.5,88.5C 213.919,87.5489 215.585,87.2155 217.5,87.5C 219.874,78.9222 223.207,70.7555 227.5,63C 224.518,62.502 221.518,62.3354 218.5,62.5C 207.833,62.5 197.167,62.5 186.5,62.5C 166.833,62.5 147.167,62.5 127.5,62.5C 118.5,62.5 109.5,62.5 100.5,62.5 Z"/></g>
<g><path style="opacity:1" fill="#48cbaf" d="M 240.5,64.5 C 241.404,65.209 241.737,66.209 241.5,67.5C 241.5,75.1667 241.5,82.8333 241.5,90.5C 240.833,90.1667 240.167,89.8333 239.5,89.5C 234.36,88.5119 229.026,88.1786 223.5,88.5C 225.369,87.8354 227.369,87.1687 229.5,86.5C 232.744,79.3515 235.411,72.0182 237.5,64.5C 238.5,64.5 239.5,64.5 240.5,64.5 Z"/></g>
<g><path style="opacity:1" fill="#1c2928" d="M 103.5,88.5 C 139.833,88.5 176.167,88.5 212.5,88.5C 216.167,88.5 219.833,88.5 223.5,88.5C 229.026,88.1786 234.36,88.5119 239.5,89.5C 193.458,89.1768 147.458,89.5101 101.5,90.5C 101.833,89.5 102.5,88.8333 103.5,88.5 Z"/></g>
<g><path style="opacity:1" fill="#1a1a1a" d="M 239.5,89.5 C 240.167,89.8333 240.833,90.1667 241.5,90.5C 241.831,121.005 241.498,151.338 240.5,181.5C 227.759,164.585 214.426,148.085 200.5,132C 185.697,124.655 175.03,128.488 168.5,143.5C 167.502,171.328 167.169,199.328 167.5,227.5C 146.167,227.5 124.833,227.5 103.5,227.5C 102.833,227.167 102.167,226.833 101.5,226.5C 100.4,225.395 99.7329,224.062 99.5,222.5C 99.3333,178.832 99.5,135.165 100,91.5C 100.383,90.944 100.883,90.6107 101.5,90.5C 147.458,89.5101 193.458,89.1768 239.5,89.5 Z"/></g>
<g><path style="opacity:1" fill="#94dda2" d="M 241.5,67.5 C 242.83,105.669 242.83,144.002 241.5,182.5C 240.893,182.376 240.56,182.043 240.5,181.5C 241.498,151.338 241.831,121.005 241.5,90.5C 241.5,82.8333 241.5,75.1667 241.5,67.5 Z"/></g>
<g><path style="opacity:1" fill="#90d39a" d="M 196.5,169.5 C 195.833,190.167 195.167,210.833 194.5,231.5C 194.167,210.489 194.5,189.489 195.5,168.5C 196.107,168.624 196.44,168.957 196.5,169.5 Z"/></g>
<g><path style="opacity:1" fill="#48fee0" d="M 98.5,193.5 C 97.7784,193.082 97.2784,192.416 97,191.5C 88.6666,198.336 80.4999,205.336 72.5,212.5C 72.3334,195.163 72.5001,177.83 73,160.5C 80.4747,154.029 87.9747,147.529 95.5,141C 96.448,140.517 97.448,140.351 98.5,140.5C 98.5,158.167 98.5,175.833 98.5,193.5 Z"/></g>
<g><path style="opacity:1" fill="#5afdd8" d="M 98.5,193.5 C 98.1729,203.348 98.5062,213.014 99.5,222.5C 99.7329,224.062 100.4,225.395 101.5,226.5C 101.511,228.017 102.177,229.184 103.5,230C 97.8333,235 92.1667,240 86.5,245C 84.8034,245.384 83.1368,245.218 81.5,244.5C 76.1056,239.375 73.1056,233.042 72.5,225.5C 72.5,221.167 72.5,216.833 72.5,212.5C 80.4999,205.336 88.6666,198.336 97,191.5C 97.2784,192.416 97.7784,193.082 98.5,193.5 Z"/></g>
<g><path style="opacity:1" fill="#73fccd" d="M 101.5,226.5 C 102.167,226.833 102.833,227.167 103.5,227.5C 120.662,228.332 137.995,228.832 155.5,229C 155.833,229.333 156.167,229.667 156.5,230C 152.796,237.574 149.796,245.407 147.5,253.5C 144.941,253.198 142.607,253.532 140.5,254.5C 125.83,254.667 111.163,254.5 96.5,254C 92.2211,252.527 88.2211,250.527 84.5,248C 83.2899,246.961 82.2899,245.794 81.5,244.5C 83.1368,245.218 84.8034,245.384 86.5,245C 92.1667,240 97.8333,235 103.5,230C 102.177,229.184 101.511,228.017 101.5,226.5 Z"/></g>
<g><path style="opacity:1" fill="#6ecba0" d="M 168.5,143.5 C 168.5,180.167 168.5,216.833 168.5,253.5C 169.833,253.5 171.167,253.5 172.5,253.5C 162.013,254.494 151.346,254.828 140.5,254.5C 142.607,253.532 144.941,253.198 147.5,253.5C 149.796,245.407 152.796,237.574 156.5,230C 156.167,229.667 155.833,229.333 155.5,229C 137.995,228.832 120.662,228.332 103.5,227.5C 124.833,227.5 146.167,227.5 167.5,227.5C 167.169,199.328 167.502,171.328 168.5,143.5 Z"/></g>
<g><path style="opacity:1" fill="#fefefe" d="M 322.5,304.5 C 324.167,304.5 325.833,304.5 327.5,304.5C 327.5,308.5 327.5,312.5 327.5,316.5C 333.833,316.5 340.167,316.5 346.5,316.5C 346.5,321.167 346.5,325.833 346.5,330.5C 230.833,330.5 115.167,330.5 -0.5,330.5C -0.5,325.833 -0.5,321.167 -0.5,316.5C 8.16667,316.5 16.8333,316.5 25.5,316.5C 25.2852,314.821 25.9519,313.821 27.5,313.5C 30.054,314.606 32.7206,315.439 35.5,316C 124.833,316.667 214.167,316.667 303.5,316C 311.437,314.703 317.771,310.87 322.5,304.5 Z"/></g>
</svg>
